<?xml version="1.0" encoding="utf-8"?>
<svg version="1.1" id="Layer_1_copy" xmlns="http://www.w3.org/2000/svg" xmlns:xlink="http://www.w3.org/1999/xlink"
  x="0px" y="0px" viewBox="0 0 512 512" style="enable-background:new 0 0 512 512;" xml:space="preserve">
  <style type="text/css">
  .st0 {
    fill: #C53A17;
  }
  </style>
  <g>
  <g id="XMLID_00000065762912323954858400000008083582540517013167_">
    <g>
    <path d="M400.9,146.2c15.4-8,43.4-11.8,45.6-11.4c-1.6,0.8-20.6,10.4-38.7,25.2c-20.8,15.7-39,27.5-64.2,35
    c-21.5,6.4-53.3,10.4-73.2,11c22.1-2.7,53.8-19.7,73.1-29.9C362.7,166,385.5,154.2,400.9,146.2z" />
    <path class="st0" d="M353,103.5c24.7-2.9,46-15.6,67.7-26.9c-12.4,22.6-31.2,41.7-50,57.1l-0.1-0.1
    c-56.8,20.4-168.2,56.3-199.1,74.3c-45.1,26.3-64.5,61.9-67.3,69.3l0.1,0.1c-11.6,12.2-17.7,22.1-24.7,32.3
    c-0.9-6.3-2-11.6-2.2-17c-0.7-14.7-1.7-29.4-1.4-44.1c0.4-17.1,4.2-33.6,10.1-49.7c11.2-30.3,40.4-49.9,70.8-60.9
    C181.9,128.7,211.4,120,353,103.5z" />
    <path d="M370.6,133.6l0.1,0.1c-21,17.2-42.1,29.8-54.8,37.4c-30,18-115.5,54.8-138.5,64.2c-17.8,7.3-40.8,12.9-63.5,32.6
    c-3.6,3.3-6.8,6.4-9.6,9.3l-0.1-0.1c2.9-7.4,22.3-43,67.3-69.3C202.5,189.8,313.8,154,370.6,133.6z" />
    <path class="st0" d="M265.5,221.9c1.3,2.3,15.7,27.2,8.7,63c-8.9,35.2-33.6,82.2-75.9,95.4c-17.4,5.4-29.8,4.9-47.4-0.3
    c-22.9-6.7-41.3-20.1-57.1-39.2c42.4,15.9,86.3,13.6,119.7-10.7C246.8,305.8,269,264.6,265.5,221.9z" />
    <path d="M212.3,252.1c9.9,43.7-22.8,82.2-80,62.2c-2.4-1-2.4-1.8-1.6-3.9c10.1-26.1,35.8-51.9,77.1-59.4
    C210,250.4,211.8,250.1,212.3,252.1z" />
    <path class="st0"
      d="M78.1,339.7c3.3,12.5,9.7,31,21.5,41.6c-20.2,17.5-19.6,51.1-19.8,54.1C60.1,401.9,62,358.5,78.1,339.7z" />
    </g>
    <g>
    </g>
  </g>
  </g>
</svg>